<?xml version="1.0" encoding="iso-8859-1"?>
<!-- Generator: Adobe Illustrator 18.1.1, SVG Export Plug-In . SVG Version: 6.00 Build 0)  -->
<svg version="1.1" id="Capa_1" xmlns="http://www.w3.org/2000/svg" xmlns:xlink="http://www.w3.org/1999/xlink" x="0px" y="0px"
	 viewBox="0 0 211.438 211.438" style="enable-background:new 0 0 211.438 211.438;" xml:space="preserve">
<g>
	<path  fill="#ebebeb" d="M211.195,109.879c-0.344-0.472-0.959-0.687-1.517-0.497c-5.837,1.936-11.918,2.91-18.07,2.91
		c-31.719,0-57.534-25.804-57.534-57.526c0-12.809,4.13-24.937,11.946-35.073c0.361-0.469,0.372-1.12,0.029-1.593
		c-0.336-0.476-0.945-0.684-1.51-0.494c-24.694,8.16-41.289,31.136-41.289,57.161c0,8.883,2.008,17.289,5.486,24.887
		c-1.432,0.19-2.859,0.444-4.273,0.798c-6.778-12.193-19.465-19.709-33.466-19.709c-20.603,0-37.46,16.341-38.272,36.934
		C13.958,120.408,0,136.434,0,155.588c0,21.126,17.189,38.315,38.312,38.315h115.293c21.122,0,38.312-17.189,38.312-38.315
		c0-9.119-3.253-17.493-8.611-24.089c10.876-3.783,20.571-10.565,27.858-20.027C211.521,111.002,211.528,110.362,211.195,109.879z
		 M153.604,190.324H38.312c-19.154,0-34.733-15.582-34.733-34.736c0-17.844,13.363-32.696,31.089-34.543l1.593-0.372v-1.61
		c0-19.154,15.582-34.736,34.736-34.736c13.127,0,24.988,7.297,30.957,19.039l0.673,1.321l1.421-0.412
		c3.192-0.927,6.449-1.396,9.677-1.396c12.615,0,24.261,6.871,30.392,17.934l0.651,1.167l1.299-0.286
		c22.271-4.914,42.27,12.279,42.27,33.895C188.337,174.738,172.755,190.324,153.604,190.324z M181.441,129.33
		c-8.489-9.012-21.233-13.94-34.851-11.395c-6.914-11.531-19.387-18.635-32.865-18.635c-0.719,0-1.439,0.093-2.162,0.132
		c-3.582-7.483-5.64-15.826-5.64-24.665c0-23.413,14.058-44.245,35.406-53.11c-6.514,9.828-9.928,21.19-9.928,33.108
		c0,33.201,27.006,60.207,60.207,60.207c4.964,0,9.881-0.608,14.68-1.814C199.482,120.769,190.914,126.234,181.441,129.33z"/>
</g>
<g>
</g>
<g>
</g>
<g>
</g>
<g>
</g>
<g>
</g>
<g>
</g>
<g>
</g>
<g>
</g>
<g>
</g>
<g>
</g>
<g>
</g>
<g>
</g>
<g>
</g>
<g>
</g>
<g>
</g>
</svg>
