<?xml version="1.0" encoding="iso-8859-1"?>
<!-- Generator: Adobe Illustrator 19.0.0, SVG Export Plug-In . SVG Version: 6.00 Build 0)  -->
<svg version="1.1" id="Layer_1" xmlns="http://www.w3.org/2000/svg" xmlns:xlink="http://www.w3.org/1999/xlink" x="0px" y="0px"
	 viewBox="0 0 512 512" style="enable-background:new 0 0 512 512;" xml:space="preserve">
<g>
	<g>
		<path fill="#ebebeb" d="M428.018,230.15c2.088-9.158,3.14-18.553,3.14-28.044c0-69.342-56.412-125.754-125.754-125.754
			c-56.057,0-105.517,37.724-120.855,90.895c-4.579-0.711-9.219-1.07-13.882-1.07c-46.636,0-85.088,35.728-89.417,81.25
			C35.728,251.754,0,290.201,0,336.842c0,49.526,40.294,89.825,89.825,89.825c4.961,0,8.982-4.015,8.982-8.982
			c0-4.965-4.022-8.982-8.982-8.982c-39.623,0-71.86-32.235-71.86-71.86c0-39.623,32.237-71.86,71.86-71.86
			c4.961,0,8.982-4.015,8.982-8.982c0-39.622,32.237-71.859,71.86-71.859c6.18,0,12.312,0.785,18.228,2.329
			c2.386,0.636,4.908,0.241,6.991-1.044c2.088-1.289,3.557-3.381,4.07-5.781c10.474-49.443,54.825-85.329,105.447-85.329
			c59.434,0,107.789,48.355,107.789,107.789c0,11.355-1.754,22.535-5.215,33.224c-0.869,2.68-0.43,5.61,1.184,7.917
			c1.614,2.307,4.219,3.724,7.031,3.829c43.649,1.588,77.842,37.076,77.842,80.784c0,44.333-36.061,80.599-80.39,80.842
			c-4.961,0.029-8.961,4.07-8.934,9.037c0.022,4.954,4.088,8.787,9.031,8.928c54.18-0.298,98.259-44.621,98.259-98.807
			C512,278.221,475.926,237.268,428.018,230.15z"/>
	</g>
</g>
<g>
	<g>
		<path fill="#ebebeb" d="M200.456,292.397c-4.724-1.57-9.798,0.974-11.364,5.673l-8.982,26.947c-1.57,4.713,0.974,9.801,5.68,11.36
			c0.943,0.316,1.904,0.465,2.842,0.465c3.763,0,7.268-2.375,8.522-6.138l8.982-26.947
			C207.706,299.043,205.162,293.958,200.456,292.397z"/>
	</g>
</g>
<g>
	<g>
		<path fill="#ebebeb" d="M173.509,382.221c-4.733-1.579-9.794,0.974-11.364,5.673l-8.982,26.947c-1.57,4.713,0.974,9.801,5.68,11.36
			c0.943,0.316,1.904,0.465,2.842,0.465c3.763,0,7.268-2.375,8.522-6.138l8.982-26.947
			C180.759,388.868,178.215,383.783,173.509,382.221z"/>
	</g>
</g>
<g>
	<g>
		<path fill="#ebebeb" d="M146.562,463.063c-4.724-1.59-9.798,0.974-11.364,5.673l-8.982,26.947c-1.57,4.713,0.974,9.801,5.68,11.36
			c0.943,0.316,1.904,0.465,2.842,0.465c3.763,0,7.268-2.375,8.522-6.138l8.982-26.947
			C153.812,469.71,151.268,464.625,146.562,463.063z"/>
	</g>
</g>
<g>
	<g>
		<path fill="#ebebeb" d="M290.281,265.449c-4.733-1.579-9.798,0.974-11.364,5.673l-8.982,26.947c-1.57,4.713,0.974,9.801,5.68,11.36
			c0.943,0.316,1.904,0.465,2.842,0.465c3.763,0,7.268-2.375,8.522-6.138l8.982-26.947
			C297.531,272.096,294.987,267.011,290.281,265.449z"/>
	</g>
</g>
<g>
	<g>
		<path fill="#ebebeb" d="M263.333,355.274c-4.719-1.59-9.798,0.974-11.364,5.673l-8.982,26.947c-1.57,4.713,0.974,9.801,5.68,11.36
			c0.943,0.316,1.904,0.465,2.842,0.465c3.763,0,7.268-2.375,8.522-6.138l8.982-26.947
			C270.583,361.921,268.04,356.835,263.333,355.274z"/>
	</g>
</g>
<g>
	<g>
		<path fill="#ebebeb" d="M236.386,436.116c-4.733-1.579-9.798,0.974-11.364,5.673l-8.982,26.947c-1.57,4.713,0.974,9.801,5.68,11.36
			c0.943,0.316,1.904,0.465,2.842,0.465c3.763,0,7.268-2.375,8.522-6.138l8.982-26.947
			C243.636,442.763,241.092,437.677,236.386,436.116z"/>
	</g>
</g>
<g>
	<g>
		<path fill="#ebebeb" d="M353.158,346.291c-4.728-1.57-9.798,0.974-11.364,5.673l-8.982,26.947c-1.57,4.713,0.974,9.801,5.68,11.36
			c0.943,0.316,1.904,0.465,2.842,0.465c3.763,0,7.268-2.375,8.522-6.138l8.982-26.947
			C360.408,352.938,357.864,347.853,353.158,346.291z"/>
	</g>
</g>
<g>
	<g>
		<path fill="#ebebeb" d="M326.211,436.116c-4.719-1.579-9.798,0.974-11.364,5.673l-8.982,26.947c-1.57,4.713,0.974,9.801,5.68,11.36
			c0.943,0.316,1.904,0.465,2.842,0.465c3.763,0,7.268-2.375,8.522-6.138l8.982-26.947
			C333.461,442.763,330.917,437.677,326.211,436.116z"/>
	</g>
</g>
<g>
	<g>
		<path fill="#ebebeb" d="M120,141.531c-24.886-20.575-39.158-50.868-39.158-83.123c0-14.373,2.781-28.329,8.268-41.474
			c1.404-3.364,0.636-7.237-1.939-9.812c-2.579-2.583-6.461-3.338-9.811-1.939C30.364,24.795,0,70.369,0,121.286
			c0,39.912,19.241,77.851,51.469,101.482c1.574,1.154,3.438,1.737,5.311,1.737c1.575,0,3.154-0.412,4.566-1.246
			c3.092-1.829,4.803-5.32,4.342-8.886c-0.022-0.18-1.917-18.403,12.522-32.842c16.25-16.25,38.881-24.544,39.105-24.627
			c3.035-1.096,5.255-3.737,5.807-6.912C123.671,146.817,122.487,143.584,120,141.531z M65.509,168.83
			c-9.404,9.404-13.939,19.833-16.075,28.552c-19.934-20.061-31.469-47.487-31.469-76.096c0-36.509,18.211-69.811,47.746-89.566
			c-1.886,8.711-2.833,17.627-2.833,26.689c0,32.89,12.719,64.04,35.311,87.386C88.895,150.501,76.215,158.123,65.509,168.83z"/>
	</g>
</g>
<g>
	<g>
		<path fill="#ebebeb" d="M143.54,101.501c-0.092-0.54-0.272-1.079-0.54-1.618c-0.18-0.535-0.452-1.075-0.811-1.614
			c-0.355-0.452-0.715-0.899-1.075-1.346c-2.518-2.518-6.469-3.325-9.794-1.89c-1.167,0.452-2.066,1.079-2.96,1.89
			c-0.36,0.447-0.719,0.895-1.079,1.346c-0.359,0.539-0.631,1.079-0.811,1.614c-0.267,0.539-0.447,1.079-0.535,1.618
			c-0.092,0.627-0.18,1.167-0.18,1.798c0,1.167,0.268,2.333,0.715,3.412c0.452,1.167,1.079,2.066,1.89,2.965
			c0.895,0.807,1.886,1.434,2.96,1.886c1.079,0.448,2.246,0.719,3.417,0.719c0.627,0,1.167-0.092,1.794-0.18
			c0.539-0.092,1.079-0.272,1.618-0.54c0.539-0.18,1.079-0.452,1.618-0.811c0.447-0.355,0.895-0.715,1.346-1.075
			c0.807-0.899,1.434-1.798,1.886-2.965c0.447-1.079,0.719-2.246,0.719-3.412C143.719,102.667,143.627,102.128,143.54,101.501z"/>
	</g>
</g>
<g>
	<g>
		<path fill="#ebebeb" d="M169.947,28.023c-0.452-1.075-1.079-2.066-1.886-2.961c-0.452-0.36-0.899-0.719-1.346-1.079
			c-0.54-0.359-1.079-0.631-1.618-0.811c-0.54-0.267-1.079-0.447-1.618-0.535c-2.965-0.631-6.105,0.36-8.171,2.425
			c-0.811,0.895-1.439,1.886-1.89,2.961c-0.447,1.079-0.715,2.246-0.715,3.416c0,0.627,0.088,1.167,0.18,1.794
			c0.088,0.539,0.268,1.079,0.535,1.618c0.18,0.539,0.452,1.079,0.811,1.618c0.36,0.447,0.719,0.895,1.079,1.346
			c1.706,1.614,4.039,2.605,6.377,2.605c0.627,0,1.167-0.092,1.794-0.18c0.539-0.092,1.079-0.272,1.618-0.54
			c0.539-0.18,1.079-0.452,1.618-0.811c0.447-0.355,0.895-0.715,1.346-1.075c0.36-0.452,0.719-0.899,1.075-1.346
			c0.36-0.54,0.631-1.079,0.811-1.618c0.268-0.54,0.447-1.079,0.54-1.618c0.088-0.627,0.18-1.167,0.18-1.794
			C170.667,30.268,170.395,29.101,169.947,28.023z"/>
	</g>
</g>
<g>
</g>
<g>
</g>
<g>
</g>
<g>
</g>
<g>
</g>
<g>
</g>
<g>
</g>
<g>
</g>
<g>
</g>
<g>
</g>
<g>
</g>
<g>
</g>
<g>
</g>
<g>
</g>
<g>
</g>
</svg>
